<?xml version="1.0" encoding="UTF-8" standalone="no"?>
<!-- Created with Inkscape (http://www.inkscape.org/) -->

<svg
   xmlns:dc="http://purl.org/dc/elements/1.1/"
   xmlns:cc="http://creativecommons.org/ns#"
   xmlns:rdf="http://www.w3.org/1999/02/22-rdf-syntax-ns#"
   xmlns:svg="http://www.w3.org/2000/svg"
   xmlns="http://www.w3.org/2000/svg"
   xmlns:sodipodi="http://sodipodi.sourceforge.net/DTD/sodipodi-0.dtd"
   xmlns:inkscape="http://www.inkscape.org/namespaces/inkscape"
   sodipodi:docname="insta2.svg"
   width="40.08823mm"
   height="22.996578mm"
   viewBox="0 0 40.088231 22.996579"
   id="svg2"
   version="1.1"
   inkscape:version="0.91+devel+osxmenu r12922">
  <sodipodi:namedview
     id="base"
     pagecolor="#ffffff"
     bordercolor="#666666"
     borderopacity="1.0"
     inkscape:pageopacity="0.0"
     inkscape:pageshadow="2"
     inkscape:zoom="2.8284272"
     inkscape:cx="34.951309"
     inkscape:cy="42.686409"
     inkscape:document-units="mm"
     inkscape:current-layer="layer1"
     showgrid="false"
     inkscape:window-width="1485"
     inkscape:window-height="744"
     inkscape:window-x="189"
     inkscape:window-y="22"
     inkscape:window-maximized="0"
     fit-margin-top="0.5"
     fit-margin-left="0.5"
     fit-margin-right="0.5"
     fit-margin-bottom="0.5" />
  <defs
     id="defs4" />
  <metadata
     id="metadata7">
    <rdf:RDF>
      <cc:Work
         rdf:about="">
        <dc:format>image/svg+xml</dc:format>
        <dc:type
           rdf:resource="http://purl.org/dc/dcmitype/StillImage" />
        <dc:title></dc:title>
      </cc:Work>
    </rdf:RDF>
  </metadata>
  <g
     inkscape:label="Ebene 1"
     inkscape:groupmode="layer"
     id="layer1"
     transform="translate(-35.201172,-120.73149)">
    <g
       style="font-style:normal;font-weight:normal;font-size:10.58333302px;line-height:125%;font-family:sans-serif;letter-spacing:0px;word-spacing:0px;fill:#000000;fill-opacity:1;stroke:none;stroke-width:0.26458332px;stroke-linecap:butt;stroke-linejoin:miter;stroke-opacity:1"
       aria-label="COP"
       id="text8146-3">
      <path
         d="m 50.839571,133.83427 q 0.321733,0 0.694267,-0.23707 0.389466,-0.23707 0.575733,-0.57573 l 0.948267,-1.6256 q 0.118533,-0.22014 0.118533,-0.4064 0,-0.4064 -0.4572,-0.4064 l -11.379199,0 q -0.338667,0 -0.728134,0.23706 -0.372533,0.23707 -0.5588,0.57574 l -4.233333,7.31519 q -0.118533,0.22014 -0.118533,0.4064 0,0.4064 0.474133,0.4064 l 11.3792,0 q 0.321733,0 0.694266,-0.23706 0.389467,-0.23707 0.575734,-0.57574 l 1.879599,-3.2512 q 0.135467,-0.22013 0.135467,-0.4064 0,-0.40639 -0.474133,-0.40639 l -4.064,0 q -0.338667,0 -0.7112,0.23706 -0.372533,0.23707 -0.575733,0.57573 l -1.405467,2.4384 q -0.186267,0.33867 -0.575733,0.57574 -0.372533,0.23706 -0.7112,0.23706 l 0,0 q -0.4572,0 -0.4572,-0.4064 0,-0.18626 0.118533,-0.4064 l 3.285067,-5.68959 q 0.2032,-0.33867 0.575733,-0.57574 0.372533,-0.23706 0.7112,-0.23706 l 0,0 q 0.4572,0 0.4572,0.4064 0,0.18626 -0.118533,0.4064 l -0.474134,0.8128 q -0.118533,0.22013 -0.118533,0.4064 0,0.4064 0.474133,0.4064 l 4.064,0 z"
         style="font-size:16.93333244px;stroke-width:0.26458332px"
         id="path8178"
         inkscape:connector-curvature="0" />
      <path
         d="m 53.020797,133.93586 q -0.201084,0 -0.4445,0.14817 -0.232834,0.14817 -0.34925,0.35983 l -2.645834,4.572 q -0.07408,0.13759 -0.07408,0.254 0,0.254 0.296333,0.254 l 7.112,0 q 0.201083,0 0.433917,-0.14816 0.243416,-0.14817 0.359833,-0.35984 l 2.645833,-4.572 q 0.07408,-0.13758 0.07408,-0.254 0,-0.254 -0.296334,-0.254 l -7.111999,0 z m 1.428749,4.572 q -0.116416,0.21167 -0.359833,0.35984 -0.232833,0.14816 -0.4445,0.14816 l 0,0 q -0.28575,0 -0.28575,-0.254 0,-0.11641 0.07408,-0.254 l 2.053167,-3.556 q 0.116417,-0.21166 0.34925,-0.35983 0.243417,-0.14817 0.455083,-0.14817 l 0,0 q 0.28575,0 0.28575,0.254 0,0.11642 -0.07408,0.254 l -2.053167,3.556 z"
         style="font-style:normal;font-variant:normal;font-weight:normal;font-stretch:normal;font-family:'Planet Kosmos';-inkscape-font-specification:'Planet Kosmos';stroke-width:0.26458332px"
         id="path8180"
         inkscape:connector-curvature="0" />
      <path
         style="font-style:normal;font-variant:normal;font-weight:normal;font-stretch:normal;font-family:'Planet Kosmos';-inkscape-font-specification:'Planet Kosmos';stroke-width:0.99999994px"
         d="m 100.50391,48.771484 c -0.533338,0 -1.093025,0.187206 -1.679691,0.560547 -0.586666,0.373342 -1.026979,0.828012 -1.320313,1.361328 L 85.423828,71.572266 c -0.32,0.533341 -0.478516,1.134123 -0.478516,1.800781 0,0.453342 0.09264,0.825799 0.279297,1.119141 l 5.279297,9 c 0.16,0.266658 0.361563,0.40039 0.601563,0.40039 0.453331,0 0.879297,-0.347674 1.279297,-1.041016 L 98.744141,71.8125 c 0.293334,-0.533317 0.733646,-0.986033 1.320309,-1.359375 0.61334,-0.373342 1.17302,-0.560547 1.67969,-0.560547 l 13.44141,0 c 0.53333,0 1.09302,-0.18723 1.67968,-0.560547 0.61334,-0.373341 1.06605,-0.826033 1.35938,-1.359375 l 5.76367,-9.958984 a 12.505078,12.505078 0 0 1 -5.70508,-9.242188 l -17.77929,0 z m 12.36132,1.921875 c 0.72,0 1.08008,0.318985 1.08008,0.958985 0,0.293341 -0.0946,0.614279 -0.28125,0.960937 l -7.75976,13.439453 c -0.32,0.533342 -0.77271,0.986034 -1.35938,1.359375 -0.58667,0.373317 -1.14635,0.560547 -1.67969,0.560547 -0.74666,0 -1.12109,-0.320937 -1.12109,-0.960937 0,-0.293317 0.10697,-0.612301 0.32031,-0.958985 l 7.75977,-13.439453 c 0.29333,-0.533316 0.73364,-0.987986 1.32031,-1.361328 0.61333,-0.373342 1.18737,-0.558594 1.7207,-0.558594 z"
         transform="matrix(0.26458333,0,0,0.26458333,35.501172,121.03149)"
         id="path8182"
         inkscape:connector-curvature="0" />
    </g>
    <g
       style="font-style:normal;font-weight:normal;font-size:10.58333302px;line-height:125%;font-family:sans-serif;letter-spacing:0px;word-spacing:0px;fill:#000000;fill-opacity:1;stroke:none;stroke-width:0.26458332px;stroke-linecap:butt;stroke-linejoin:miter;stroke-opacity:1"
       aria-label="INSTA"
       id="text8146-32">
      <path
         d="m 40.726643,130.17229 q 0.321733,0 0.694267,-0.23707 0.389466,-0.23707 0.575733,-0.57573 l 4.233333,-7.3152 q 0.118533,-0.22014 0.118533,-0.4064 0,-0.4064 -0.474133,-0.4064 l -4.064,0 q -0.321733,0 -0.7112,0.23706 -0.372533,0.23707 -0.5588,0.57574 l -4.233333,7.3152 q -0.118533,0.22013 -0.118533,0.4064 0,0.4064 0.474133,0.4064 l 4.064,0 z"
         style="font-size:16.93333244px;stroke-width:0.26458332px"
         id="path8167"
         inkscape:connector-curvature="0" />
      <path
         d="m 46.197697,124.58429 q -0.201084,0 -0.4445,0.14816 -0.232833,0.14817 -0.34925,0.35984 l -2.645833,4.572 q -0.07408,0.13758 -0.07408,0.254 0,0.254 0.296334,0.254 l 2.54,0 q 0.201083,0 0.433916,-0.14817 0.243417,-0.14817 0.359833,-0.35983 l 2.3495,-4.064 q 0.116417,-0.21167 0.34925,-0.35984 0.243417,-0.14816 0.455084,-0.14816 0.28575,0 0.28575,0.254 0,0.11641 -0.07408,0.254 l -2.3495,4.064 q -0.07408,0.13758 -0.07408,0.254 0,0.254 0.296333,0.254 l 2.54,0 q 0.201084,0 0.433917,-0.14817 0.243417,-0.14817 0.359833,-0.35983 l 2.645834,-4.572 q 0.07408,-0.13759 0.07408,-0.254 0,-0.254 -0.296333,-0.254 l -7.112,0 z"
         style="font-style:normal;font-variant:normal;font-weight:normal;font-stretch:normal;font-family:'Planet Kosmos';-inkscape-font-specification:'Planet Kosmos';stroke-width:0.26458332px"
         id="path8169"
         inkscape:connector-curvature="0" />
      <path
         d="m 60.815595,126.61629 q 0.211666,0 0.4445,-0.14817 0.243416,-0.14817 0.359833,-0.35983 l 0.582083,-1.016 q 0.08467,-0.13759 0.08467,-0.254 0,-0.254 -0.296333,-0.254 l -7.112,0 q -0.211667,0 -0.4445,0.14816 -0.232833,0.14817 -0.359833,0.35984 l -1.164167,2.032 q -0.08467,0.13758 -0.08467,0.254 0,0.254 0.296334,0.254 l 3.556,0 q 0.296333,0 0.296333,0.254 0,0.11641 -0.08467,0.254 l -0.582083,1.016 q -0.127,0.21166 -0.359833,0.35983 -0.232834,0.14817 -0.4445,0.14817 -0.296334,0 -0.296334,-0.254 0,-0.11642 0.08467,-0.254 l 0.28575,-0.508 q 0.08467,-0.13759 0.08467,-0.254 0,-0.254 -0.296334,-0.254 l -2.54,0 q -0.211666,0 -0.4445,0.14816 -0.232833,0.14817 -0.359833,0.35984 l -0.582083,1.016 q -0.07408,0.13758 -0.07408,0.254 0,0.254 0.28575,0.254 l 7.112,0 q 0.211667,0 0.4445,-0.14817 0.243417,-0.14817 0.359833,-0.35983 l 1.17475,-2.032 q 0.07408,-0.13759 0.07408,-0.254 0,-0.254 -0.28575,-0.254 l -3.556,0 q -0.296333,0 -0.296333,-0.254 0,-0.11642 0.07408,-0.254 l 0.592667,-1.016 q 0.116416,-0.21167 0.34925,-0.35984 0.243416,-0.14816 0.4445,-0.14816 0.296333,0 0.296333,0.254 0,0.11641 -0.07408,0.254 l -0.296334,0.508 q -0.07408,0.13758 -0.07408,0.254 0,0.254 0.28575,0.254 l 2.54,0 z"
         style="font-style:normal;font-variant:normal;font-weight:normal;font-stretch:normal;font-family:'Planet Kosmos';-inkscape-font-specification:'Planet Kosmos';stroke-width:0.26458332px"
         id="path8171"
         inkscape:connector-curvature="0" />
      <path
         d="m 66.585826,124.58429 q 0.127,-0.21167 0.359834,-0.35984 0.232833,-0.14816 0.4445,-0.14816 l 0,0 q 0.179916,0 0.402166,-0.0741 0.275167,-0.0953 0.275167,-0.254 0,-0.17991 -0.381,-0.17991 l 0,0 q -0.296333,0 -0.296333,-0.254 0,-0.11642 0.07408,-0.254 l 0.592667,-1.016 q 0.07408,-0.13759 0.07408,-0.254 0,-0.254 -0.28575,-0.254 l -2.54,0 q -0.211667,0 -0.455083,0.14816 -0.232834,0.14817 -0.34925,0.35984 l -4.910667,8.509 q -0.15875,0.26458 -0.15875,0.5715 0,0.15875 0.0635,0.26458 l 1.397,2.38125 q 0.0635,0.10583 0.15875,0.10583 0.179917,0 0.338667,-0.27516 l 5.196416,-9.017 z"
         style="font-style:normal;font-variant:normal;font-weight:normal;font-stretch:normal;font-family:'Planet Kosmos';-inkscape-font-specification:'Planet Kosmos';stroke-width:0.26458332px"
         id="path8173"
         inkscape:connector-curvature="0" />
      <path
         d="m 67.391648,124.58429 q -0.211667,0 -0.455083,0.14816 -0.232834,0.14817 -0.34925,0.35984 l -0.592667,1.016 q -0.07408,0.13758 -0.07408,0.254 0,0.254 0.296333,0.254 l 2.54,0 q 0.201083,0 0.433917,-0.14817 0.243416,-0.14817 0.359833,-0.35983 l 0.296333,-0.508 q 0.127,-0.21167 0.359834,-0.35984 0.232833,-0.14816 0.4445,-0.14816 l 0,0 q 0.28575,0 0.28575,0.254 0,0.11641 -0.07408,0.254 l -0.582083,1.016 q -0.127,0.21166 -0.359833,0.35983 -0.232834,0.14817 -0.4445,0.14817 l 0,0 -3.556,0 q -0.211667,0 -0.4445,0.14816 -0.232834,0.14817 -0.359834,0.35984 l -1.17475,2.032 q -0.07408,0.13758 -0.07408,0.254 0,0.254 0.296333,0.254 l 7.112,0 q 0.201084,0 0.433917,-0.14817 0.243417,-0.14817 0.359833,-0.35983 l 2.645833,-4.572 q 0.07408,-0.13759 0.07408,-0.254 0,-0.254 -0.28575,-0.254 l -7.112,0 z m 1.418167,4.572 q -0.116417,0.21166 -0.359834,0.35983 -0.232833,0.14817 -0.4445,0.14817 l 0,0 q -0.28575,0 -0.28575,-0.254 0,-0.11642 0.07408,-0.254 l 0.592666,-1.016 q 0.116417,-0.21167 0.34925,-0.35984 0.232834,-0.14816 0.4445,-0.14816 l 0,0 q 0.296334,0 0.296334,0.254 0,0.11641 -0.07408,0.254 l -0.592666,1.016 z"
         style="font-style:normal;font-variant:normal;font-weight:normal;font-stretch:normal;font-family:'Planet Kosmos';-inkscape-font-specification:'Planet Kosmos';stroke-width:0.26458332px"
         id="path8175"
         inkscape:connector-curvature="0" />
    </g>
    <g
       id="g8212"
       transform="translate(-8.7201389,0.83744325)">
      <path
         inkscape:connector-curvature="0"
         id="path8159"
         d="m 81.615536,132.75732 a 2.8110442,2.8110442 0 0 1 -2.811045,2.81104 2.8110442,2.8110442 0 0 1 -2.811044,-2.81104 2.8110442,2.8110442 0 0 1 2.811044,-2.81105 2.8110442,2.8110442 0 0 1 2.811045,2.81105 z"
         style="opacity:1;fill:none;fill-opacity:1;stroke:#000000;stroke-width:0.35676107;stroke-miterlimit:4;stroke-dasharray:none;stroke-opacity:1" />
      <g
         id="text8159"
         aria-label="V2"
         style="font-style:normal;font-weight:normal;font-size:3.76414013px;line-height:125%;font-family:sans-serif;letter-spacing:0px;word-spacing:0px;fill:#000000;fill-opacity:1;stroke:none;stroke-width:0.09410351px;stroke-linecap:butt;stroke-linejoin:miter;stroke-opacity:1"
         transform="matrix(1.0570558,0,0,0.94602385,8.7973956,-0.66145832)">
        <path
           inkscape:connector-curvature="0"
           id="path8161"
           style="font-style:normal;font-variant:normal;font-weight:900;font-stretch:normal;font-family:'YEEZY TSTAR';-inkscape-font-specification:'YEEZY TSTAR Heavy';fill:#000000;stroke-width:0.09410351px"
           d="m 65.006129,142.38202 -0.03676,-0.0294 -0.656152,-2.6099 0.0386,-0.0441 0.47787,0 0.03676,0.0257 0.430082,1.77731 0.428245,-1.77731 0.0386,-0.0257 0.477869,0 0.03676,0.0441 -0.654314,2.6099 -0.0386,0.0294 -0.578957,0 z" />
        <path
           inkscape:connector-curvature="0"
           id="path8163"
           style="font-style:normal;font-variant:normal;font-weight:900;font-stretch:normal;font-family:'YEEZY TSTAR';-inkscape-font-specification:'YEEZY TSTAR Heavy';fill:#000000;stroke-width:0.09410351px"
           d="m 67.213518,141.52737 q -0.06984,0.0533 -0.102926,0.11028 -0.03308,0.057 -0.03308,0.11579 l 0,0.0753 1.027419,0 0.0386,0.0404 0,0.47603 -0.0386,0.0368 -1.543886,0 -0.03676,-0.0368 0,-0.6102 q 0,-0.17645 0.09741,-0.34554 0.09741,-0.17093 0.286722,-0.31061 0.07352,-0.0533 0.14336,-0.0956 0.07168,-0.0441 0.141523,-0.0882 0.07168,-0.0441 0.143361,-0.0919 0.07352,-0.0496 0.150713,-0.11211 0.04227,-0.0331 0.06984,-0.0919 0.02757,-0.0607 0.02757,-0.12498 0,-0.0772 -0.02205,-0.12498 -0.02206,-0.0496 -0.05881,-0.0772 -0.03492,-0.0294 -0.08087,-0.0404 -0.04411,-0.011 -0.09006,-0.011 -0.03124,0 -0.07352,0.011 -0.04227,0.009 -0.08087,0.046 -0.0386,0.0349 -0.068,0.1066 -0.02757,0.0698 -0.02941,0.19115 l -0.03676,0.0368 -0.479707,0 -0.03676,-0.0368 q 0,-0.0919 0.01838,-0.19299 0.01838,-0.10293 0.05881,-0.20218 0.04044,-0.0992 0.102926,-0.18931 0.06433,-0.0901 0.152551,-0.15806 0.09006,-0.0698 0.207689,-0.11028 0.117629,-0.0423 0.264666,-0.0423 0.178282,0 0.327157,0.0588 0.148874,0.057 0.255476,0.16174 0.10844,0.10477 0.167254,0.24997 0.06065,0.1452 0.06065,0.3198 0,0.18747 -0.07352,0.35105 -0.07352,0.16174 -0.209528,0.27018 -0.07719,0.0607 -0.158064,0.11396 -0.07903,0.0515 -0.161741,0.10292 -0.08087,0.0515 -0.163578,0.10476 -0.08271,0.0515 -0.163578,0.11396 z" />
      </g>
    </g>
  </g>
</svg>
