<?xml version="1.0" encoding="UTF-8" standalone="no"?>
<!-- Created with Inkscape (http://www.inkscape.org/) -->

<svg
   xmlns:dc="http://purl.org/dc/elements/1.1/"
   xmlns:cc="http://creativecommons.org/ns#"
   xmlns:rdf="http://www.w3.org/1999/02/22-rdf-syntax-ns#"
   xmlns:svg="http://www.w3.org/2000/svg"
   xmlns="http://www.w3.org/2000/svg"
   xmlns:sodipodi="http://sodipodi.sourceforge.net/DTD/sodipodi-0.dtd"
   xmlns:inkscape="http://www.inkscape.org/namespaces/inkscape"
   sodipodi:docname="insta.svg"
   width="40.08823mm"
   height="22.996578mm"
   viewBox="0 0 40.088231 22.996579"
   id="svg2"
   version="1.1"
   inkscape:version="0.91+devel+osxmenu r12922">
  <sodipodi:namedview
     id="base"
     pagecolor="#ffffff"
     bordercolor="#666666"
     borderopacity="1.0"
     inkscape:pageopacity="0.0"
     inkscape:pageshadow="2"
     inkscape:zoom="5.6568544"
     inkscape:cx="76.905608"
     inkscape:cy="56.212325"
     inkscape:document-units="mm"
     inkscape:current-layer="layer1"
     showgrid="false"
     inkscape:window-width="1527"
     inkscape:window-height="877"
     inkscape:window-x="153"
     inkscape:window-y="22"
     inkscape:window-maximized="0"
     fit-margin-top="0.5"
     fit-margin-left="0.5"
     fit-margin-right="0.5"
     fit-margin-bottom="0.5" />
  <defs
     id="defs4" />
  <metadata
     id="metadata7">
    <rdf:RDF>
      <cc:Work
         rdf:about="">
        <dc:format>image/svg+xml</dc:format>
        <dc:type
           rdf:resource="http://purl.org/dc/dcmitype/StillImage" />
        <dc:title></dc:title>
      </cc:Work>
    </rdf:RDF>
  </metadata>
  <g
     inkscape:label="Ebene 1"
     inkscape:groupmode="layer"
     id="layer1"
     transform="translate(-35.201172,-120.73149)">
    <g
       style="font-style:normal;font-weight:normal;font-size:10.58333302px;line-height:125%;font-family:sans-serif;letter-spacing:0px;word-spacing:0px;fill:#000000;fill-opacity:1;stroke:none;stroke-width:0.26458332px;stroke-linecap:butt;stroke-linejoin:miter;stroke-opacity:1"
       aria-label="INSTA"
       id="text8146-32"
       transform="translate(-0.30981577)">
      <path
         d="m 40.726643,130.17229 q 0.321733,0 0.694267,-0.23707 0.389466,-0.23707 0.575733,-0.57573 l 4.233333,-7.3152 q 0.118533,-0.22014 0.118533,-0.4064 0,-0.4064 -0.474133,-0.4064 l -4.064,0 q -0.321733,0 -0.7112,0.23706 -0.372533,0.23707 -0.5588,0.57574 l -4.233333,7.3152 q -0.118533,0.22013 -0.118533,0.4064 0,0.4064 0.474133,0.4064 l 4.064,0 z"
         style="font-size:16.93333244px;stroke-width:0.26458332px"
         id="path8167"
         inkscape:connector-curvature="0" />
      <path
         d="m 46.010609,124.58429 q -0.201084,0 -0.4445,0.14816 -0.232833,0.14817 -0.34925,0.35984 l -2.645833,4.572 q -0.07408,0.13758 -0.07408,0.254 0,0.254 0.296334,0.254 l 2.54,0 q 0.201083,0 0.433916,-0.14817 0.243417,-0.14817 0.359833,-0.35983 l 2.3495,-4.064 q 0.116417,-0.21167 0.34925,-0.35984 0.243417,-0.14816 0.455084,-0.14816 0.28575,0 0.28575,0.254 0,0.11641 -0.07408,0.254 l -2.3495,4.064 q -0.07408,0.13758 -0.07408,0.254 0,0.254 0.296333,0.254 l 2.54,0 q 0.201084,0 0.433917,-0.14817 0.243417,-0.14817 0.359833,-0.35983 l 2.645834,-4.572 q 0.07408,-0.13759 0.07408,-0.254 0,-0.254 -0.296333,-0.254 l -7.112,0 z"
         style="font-style:normal;font-variant:normal;font-weight:normal;font-stretch:normal;font-family:'Planet Kosmos';-inkscape-font-specification:'Planet Kosmos';stroke-width:0.26458332px"
         id="path8169"
         inkscape:connector-curvature="0" />
      <path
         d="m 60.722051,126.61629 q 0.211666,0 0.4445,-0.14817 0.243416,-0.14817 0.359833,-0.35983 l 0.582083,-1.016 q 0.08467,-0.13759 0.08467,-0.254 0,-0.254 -0.296333,-0.254 l -7.112,0 q -0.211667,0 -0.4445,0.14816 -0.232833,0.14817 -0.359833,0.35984 l -1.164167,2.032 q -0.08467,0.13758 -0.08467,0.254 0,0.254 0.296334,0.254 l 3.556,0 q 0.296333,0 0.296333,0.254 0,0.11641 -0.08467,0.254 l -0.582083,1.016 q -0.127,0.21166 -0.359833,0.35983 -0.232834,0.14817 -0.4445,0.14817 -0.296334,0 -0.296334,-0.254 0,-0.11642 0.08467,-0.254 l 0.28575,-0.508 q 0.08467,-0.13759 0.08467,-0.254 0,-0.254 -0.296334,-0.254 l -2.54,0 q -0.211666,0 -0.4445,0.14816 -0.232833,0.14817 -0.359833,0.35984 l -0.582083,1.016 q -0.07408,0.13758 -0.07408,0.254 0,0.254 0.28575,0.254 l 7.112,0 q 0.211667,0 0.4445,-0.14817 0.243417,-0.14817 0.359833,-0.35983 l 1.17475,-2.032 q 0.07408,-0.13759 0.07408,-0.254 0,-0.254 -0.28575,-0.254 l -3.556,0 q -0.296333,0 -0.296333,-0.254 0,-0.11642 0.07408,-0.254 l 0.592667,-1.016 q 0.116416,-0.21167 0.34925,-0.35984 0.243416,-0.14816 0.4445,-0.14816 0.296333,0 0.296333,0.254 0,0.11641 -0.07408,0.254 l -0.296334,0.508 q -0.07408,0.13758 -0.07408,0.254 0,0.254 0.28575,0.254 l 2.54,0 z"
         style="font-style:normal;font-variant:normal;font-weight:normal;font-stretch:normal;font-family:'Planet Kosmos';-inkscape-font-specification:'Planet Kosmos';stroke-width:0.26458332px"
         id="path8171"
         inkscape:connector-curvature="0" />
      <path
         d="m 66.585826,124.58429 q 0.127,-0.21167 0.359834,-0.35984 0.232833,-0.14816 0.4445,-0.14816 l 0,0 q 0.179916,0 0.402166,-0.0741 0.275167,-0.0953 0.275167,-0.254 0,-0.17991 -0.381,-0.17991 l 0,0 q -0.296333,0 -0.296333,-0.254 0,-0.11642 0.07408,-0.254 l 0.592667,-1.016 q 0.07408,-0.13759 0.07408,-0.254 0,-0.254 -0.28575,-0.254 l -2.54,0 q -0.211667,0 -0.455083,0.14816 -0.232834,0.14817 -0.34925,0.35984 l -4.910667,8.509 q -0.15875,0.26458 -0.15875,0.5715 0,0.15875 0.0635,0.26458 l 1.397,2.38125 q 0.0635,0.10583 0.15875,0.10583 0.179917,0 0.338667,-0.27516 l 5.196416,-9.017 z"
         style="font-style:normal;font-variant:normal;font-weight:normal;font-stretch:normal;font-family:'Planet Kosmos';-inkscape-font-specification:'Planet Kosmos';stroke-width:0.26458332px"
         id="path8173"
         inkscape:connector-curvature="0" />
      <path
         d="m 67.719052,124.58429 q -0.211667,0 -0.455083,0.14816 -0.232834,0.14817 -0.34925,0.35984 l -0.592667,1.016 q -0.07408,0.13758 -0.07408,0.254 0,0.254 0.296333,0.254 l 2.54,0 q 0.201083,0 0.433917,-0.14817 0.243416,-0.14817 0.359833,-0.35983 l 0.296333,-0.508 q 0.127,-0.21167 0.359834,-0.35984 0.232833,-0.14816 0.4445,-0.14816 l 0,0 q 0.28575,0 0.28575,0.254 0,0.11641 -0.07408,0.254 l -0.582083,1.016 q -0.127,0.21166 -0.359833,0.35983 -0.232834,0.14817 -0.4445,0.14817 l 0,0 -3.556,0 q -0.211667,0 -0.4445,0.14816 -0.232834,0.14817 -0.359834,0.35984 l -1.17475,2.032 q -0.07408,0.13758 -0.07408,0.254 0,0.254 0.296333,0.254 l 7.112,0 q 0.201084,0 0.433917,-0.14817 0.243417,-0.14817 0.359833,-0.35983 l 2.645833,-4.572 q 0.07408,-0.13759 0.07408,-0.254 0,-0.254 -0.28575,-0.254 l -7.112,0 z m 1.418167,4.572 q -0.116417,0.21166 -0.359834,0.35983 -0.232833,0.14817 -0.4445,0.14817 l 0,0 q -0.28575,0 -0.28575,-0.254 0,-0.11642 0.07408,-0.254 l 0.592666,-1.016 q 0.116417,-0.21167 0.34925,-0.35984 0.232834,-0.14816 0.4445,-0.14816 l 0,0 q 0.296334,0 0.296334,0.254 0,0.11641 -0.07408,0.254 l -0.592666,1.016 z"
         style="font-style:normal;font-variant:normal;font-weight:normal;font-stretch:normal;font-family:'Planet Kosmos';-inkscape-font-specification:'Planet Kosmos';stroke-width:0.26458332px"
         id="path8175"
         inkscape:connector-curvature="0" />
    </g>
    <g
       id="g8247"
       transform="translate(-0.67020364)">
      <g
         transform="translate(0.91387171)"
         id="text8146-3"
         aria-label="COP"
         style="font-style:normal;font-weight:normal;font-size:10.58333302px;line-height:125%;font-family:sans-serif;letter-spacing:0px;word-spacing:0px;fill:#000000;fill-opacity:1;stroke:none;stroke-width:0.26458332px;stroke-linecap:butt;stroke-linejoin:miter;stroke-opacity:1">
        <path
           inkscape:connector-curvature="0"
           id="path8178"
           style="font-size:16.93333244px;stroke-width:0.26458332px"
           d="m 50.839571,133.83427 q 0.321733,0 0.694267,-0.23707 0.389466,-0.23707 0.575733,-0.57573 l 0.948267,-1.6256 q 0.118533,-0.22014 0.118533,-0.4064 0,-0.4064 -0.4572,-0.4064 l -11.379199,0 q -0.338667,0 -0.728134,0.23706 -0.372533,0.23707 -0.5588,0.57574 l -4.233333,7.31519 q -0.118533,0.22014 -0.118533,0.4064 0,0.4064 0.474133,0.4064 l 11.3792,0 q 0.321733,0 0.694266,-0.23706 0.389467,-0.23707 0.575734,-0.57574 l 1.879599,-3.2512 q 0.135467,-0.22013 0.135467,-0.4064 0,-0.40639 -0.474133,-0.40639 l -4.064,0 q -0.338667,0 -0.7112,0.23706 -0.372533,0.23707 -0.575733,0.57573 l -1.405467,2.4384 q -0.186267,0.33867 -0.575733,0.57574 -0.372533,0.23706 -0.7112,0.23706 l 0,0 q -0.4572,0 -0.4572,-0.4064 0,-0.18626 0.118533,-0.4064 l 3.285067,-5.68959 q 0.2032,-0.33867 0.575733,-0.57574 0.372533,-0.23706 0.7112,-0.23706 l 0,0 q 0.4572,0 0.4572,0.4064 0,0.18626 -0.118533,0.4064 l -0.474134,0.8128 q -0.118533,0.22013 -0.118533,0.4064 0,0.4064 0.474133,0.4064 l 4.064,0 z" />
        <path
           inkscape:connector-curvature="0"
           id="path8180"
           style="font-style:normal;font-variant:normal;font-weight:normal;font-stretch:normal;font-family:'Planet Kosmos';-inkscape-font-specification:'Planet Kosmos';stroke-width:0.26458332px"
           d="m 53.020797,133.93586 q -0.201084,0 -0.4445,0.14817 -0.232834,0.14817 -0.34925,0.35983 l -2.645834,4.572 q -0.07408,0.13759 -0.07408,0.254 0,0.254 0.296333,0.254 l 7.112,0 q 0.201083,0 0.433917,-0.14816 0.243416,-0.14817 0.359833,-0.35984 l 2.645833,-4.572 q 0.07408,-0.13758 0.07408,-0.254 0,-0.254 -0.296334,-0.254 l -7.111999,0 z m 1.428749,4.572 q -0.116416,0.21167 -0.359833,0.35984 -0.232833,0.14816 -0.4445,0.14816 l 0,0 q -0.28575,0 -0.28575,-0.254 0,-0.11641 0.07408,-0.254 l 2.053167,-3.556 q 0.116417,-0.21166 0.34925,-0.35983 0.243417,-0.14817 0.455083,-0.14817 l 0,0 q 0.28575,0 0.28575,0.254 0,0.11642 -0.07408,0.254 l -2.053167,3.556 z" />
        <path
           inkscape:connector-curvature="0"
           id="path8182"
           transform="matrix(0.26458333,0,0,0.26458333,35.501172,121.03149)"
           d="m 100.50391,48.771484 c -0.533338,0 -1.093025,0.187206 -1.679691,0.560547 -0.586666,0.373342 -1.026979,0.828012 -1.320313,1.361328 L 85.423828,71.572266 c -0.32,0.533341 -0.478516,1.134123 -0.478516,1.800781 0,0.453342 0.09264,0.825799 0.279297,1.119141 l 5.279297,9 c 0.16,0.266658 0.361563,0.40039 0.601563,0.40039 0.453331,0 0.879297,-0.347674 1.279297,-1.041016 L 98.744141,71.8125 c 0.293334,-0.533317 0.733646,-0.986033 1.320309,-1.359375 0.61334,-0.373342 1.17302,-0.560547 1.67969,-0.560547 l 13.44141,0 c 0.53333,0 1.09302,-0.18723 1.67968,-0.560547 0.61334,-0.373341 1.06605,-0.826033 1.35938,-1.359375 l 5.76367,-9.958984 a 12.505078,12.505078 0 0 1 -5.70508,-9.242188 l -17.77929,0 z m 12.36132,1.921875 c 0.72,0 1.08008,0.318985 1.08008,0.958985 0,0.293341 -0.0946,0.614279 -0.28125,0.960937 l -7.75976,13.439453 c -0.32,0.533342 -0.77271,0.986034 -1.35938,1.359375 -0.58667,0.373317 -1.14635,0.560547 -1.67969,0.560547 -0.74666,0 -1.12109,-0.320937 -1.12109,-0.960937 0,-0.293317 0.10697,-0.612301 0.32031,-0.958985 l 7.75977,-13.439453 c 0.29333,-0.533316 0.73364,-0.987986 1.32031,-1.361328 0.61333,-0.373342 1.18737,-0.558594 1.7207,-0.558594 z"
           style="font-style:normal;font-variant:normal;font-weight:normal;font-stretch:normal;font-family:'Planet Kosmos';-inkscape-font-specification:'Planet Kosmos';stroke-width:0.99999994px" />
      </g>
      <path
         style="opacity:1;fill:#000000;fill-opacity:1;stroke:none;stroke-width:0.36515591;stroke-miterlimit:4;stroke-dasharray:none;stroke-opacity:1"
         d="m 71.031503,130.6513 c -1.589151,-9e-5 -2.877431,1.28819 -2.877344,2.87734 -8.2e-5,1.58915 1.288198,2.87744 2.877344,2.87735 1.589148,9e-5 2.877428,-1.2882 2.877344,-2.87735 8.7e-5,-1.58915 -1.288193,-2.87743 -2.877344,-2.87734 z m 1.214914,1.6552 c 0.541985,0 0.894003,0.29094 0.894003,0.709 0,0.3123 -0.237755,0.54883 -0.429432,0.73225 l -0.569992,0.52504 0,0.0119 1.029396,0 0,0.46612 -1.817979,0 0,-0.40514 0.930693,-0.85576 c 0.198292,-0.19003 0.270786,-0.30553 0.270786,-0.45424 0,-0.15202 -0.128826,-0.27285 -0.327113,-0.27285 -0.204898,0 -0.353467,0.1403 -0.353467,0.33693 l 0,0.0119 -0.555522,0 0,-0.0119 c 0,-0.47093 0.371769,-0.79323 0.928627,-0.79323 z m -3.354319,0.0594 0.689364,0 0.459404,1.79163 0.01292,0 0.457854,-1.79163 0.664041,0 -0.760159,2.38487 -0.763262,0 -0.760161,-2.38487 z"
         id="path8159"
         inkscape:connector-curvature="0" />
    </g>
    <g
       transform="matrix(1.0570558,0,0,0.94602385,0.0772567,0.17598493)"
       style="font-style:normal;font-weight:normal;font-size:3.76414013px;line-height:125%;font-family:sans-serif;letter-spacing:0px;word-spacing:0px;fill:#000000;fill-opacity:1;stroke:none;stroke-width:0.09410351px;stroke-linecap:butt;stroke-linejoin:miter;stroke-opacity:1"
       aria-label="V2"
       id="text8159" />
  </g>
</svg>
